<?xml version="1.0" encoding="UTF-8"?>
<svg width="18px" height="18px" viewBox="0 0 18 18" version="1.1" xmlns="http://www.w3.org/2000/svg" xmlns:xlink="http://www.w3.org/1999/xlink">
    <title>8C2550AB-3526-432C-9710-5E6AAE35313F</title>
    <g id="Home-Page" stroke="none" stroke-width="1" fill="none" fill-rule="evenodd">
        <g id="Nissan-Home-Page-Final" transform="translate(-1286.000000, -10.000000)" fill="#C0BFC0" fill-rule="nonzero">
            <g id="Group-4" transform="translate(1286.000000, 10.000000)">
                <path d="M12.7298406,8.98141743 C13.2151076,8.58419101 13.8683518,8.50474573 14.4096112,8.80266554 C15.7160995,9.49781177 16.4813284,10.6497684 17.1345725,11.9606156 C17.8624731,13.410492 19.2510093,17.4860265 15.5159846,17.4860265 L15.5159846,17.4860265 L3.04835347,17.4860265 C-1.29162679,17.4860265 0.0569041379,13.410492 0.784804757,11.9606156 C1.4380489,10.6497684 2.25927011,9.49781177 3.54709429,8.80266554 C4.08835372,8.50474573 4.74159787,8.58419101 5.22686495,8.98141743 C6.27205558,9.83545423 7.57854387,10.3518486 8.97835275,10.3518486 C10.3781616,10.3518486 11.6846499,9.83545423 12.7298406,8.98141743 Z M8.97835275,0 C11.1021085,0 12.8397268,2.2290659 12.8397268,4.47568351 C12.8397268,6.72230111 11.1021085,8.86360852 8.97835275,8.86360852 C6.85459705,8.86360852 5.11697875,6.73985281 5.11697875,4.47568351 C5.11697875,2.2115142 6.85459705,0 8.97835275,0 Z" id="Combined-Shape"></path>
            </g>
        </g>
    </g>
</svg>